<mxfile host="app.diagrams.net" modified="2021-03-04T03:29:34.320Z" agent="5.0 (Windows NT 10.0; Win64; x64) AppleWebKit/537.36 (KHTML, like Gecko) Chrome/79.0.3945.88 Safari/537.36" etag="TMEz6ltt6LupVsuLcUM9" version="14.4.3" type="github">
  <diagram id="grAfEipi8-6mEYou1HHr" name="sidecar">
    <mxGraphModel dx="2062" dy="1154" grid="1" gridSize="10" guides="1" tooltips="1" connect="1" arrows="1" fold="1" page="1" pageScale="1" pageWidth="583" pageHeight="827" math="0" shadow="0">
      <root>
        <mxCell id="0" />
        <mxCell id="1" parent="0" />
        <mxCell id="oa86yUTpvysGV-nhvWKG-116" value="s" style="rounded=0;whiteSpace=wrap;html=1;" parent="1" vertex="1">
          <mxGeometry x="220" y="640" width="790" height="110" as="geometry" />
        </mxCell>
        <mxCell id="oa86yUTpvysGV-nhvWKG-2" value="" style="rounded=0;whiteSpace=wrap;html=1;" parent="1" vertex="1">
          <mxGeometry x="220" y="130" width="786" height="444" as="geometry" />
        </mxCell>
        <mxCell id="oa86yUTpvysGV-nhvWKG-14" style="edgeStyle=orthogonalEdgeStyle;rounded=0;orthogonalLoop=1;jettySize=auto;html=1;exitX=0.5;exitY=0;exitDx=0;exitDy=0;entryX=0.5;entryY=1;entryDx=0;entryDy=0;" parent="1" source="oa86yUTpvysGV-nhvWKG-8" target="oa86yUTpvysGV-nhvWKG-11" edge="1">
          <mxGeometry relative="1" as="geometry" />
        </mxCell>
        <mxCell id="oa86yUTpvysGV-nhvWKG-108" style="edgeStyle=orthogonalEdgeStyle;orthogonalLoop=1;jettySize=auto;html=1;exitX=1;exitY=0.5;exitDx=0;exitDy=0;entryX=0;entryY=0.5;entryDx=0;entryDy=0;rounded=0;jumpStyle=arc;strokeWidth=2;startArrow=block;startFill=0;dashed=1;endArrow=block;endFill=0;dashPattern=1 1;" parent="1" source="qV7i9vCq-9uY7oXg63Xt-2" target="oa86yUTpvysGV-nhvWKG-93" edge="1">
          <mxGeometry relative="1" as="geometry" />
        </mxCell>
        <mxCell id="oa86yUTpvysGV-nhvWKG-8" value="主调认证过滤器" style="rounded=0;whiteSpace=wrap;html=1;fillColor=#fad7ac;strokeColor=#b46504;" parent="1" vertex="1">
          <mxGeometry x="396" y="500" width="120" height="40" as="geometry" />
        </mxCell>
        <mxCell id="oa86yUTpvysGV-nhvWKG-18" style="edgeStyle=orthogonalEdgeStyle;rounded=0;orthogonalLoop=1;jettySize=auto;html=1;exitX=0.5;exitY=0;exitDx=0;exitDy=0;entryX=0.5;entryY=1;entryDx=0;entryDy=0;" parent="1" source="oa86yUTpvysGV-nhvWKG-11" target="oa86yUTpvysGV-nhvWKG-15" edge="1">
          <mxGeometry relative="1" as="geometry" />
        </mxCell>
        <mxCell id="oa86yUTpvysGV-nhvWKG-11" value="权限过滤器" style="rounded=0;whiteSpace=wrap;html=1;fillColor=#fad7ac;strokeColor=#b46504;" parent="1" vertex="1">
          <mxGeometry x="396" y="420" width="120" height="40" as="geometry" />
        </mxCell>
        <mxCell id="oa86yUTpvysGV-nhvWKG-21" style="edgeStyle=orthogonalEdgeStyle;rounded=0;orthogonalLoop=1;jettySize=auto;html=1;exitX=0.5;exitY=0;exitDx=0;exitDy=0;entryX=0.5;entryY=1;entryDx=0;entryDy=0;" parent="1" source="oa86yUTpvysGV-nhvWKG-15" target="oa86yUTpvysGV-nhvWKG-19" edge="1">
          <mxGeometry relative="1" as="geometry" />
        </mxCell>
        <mxCell id="oa86yUTpvysGV-nhvWKG-15" value="熔断过滤器" style="rounded=0;whiteSpace=wrap;html=1;fillColor=#fad7ac;strokeColor=#b46504;" parent="1" vertex="1">
          <mxGeometry x="396" y="350" width="120" height="40" as="geometry" />
        </mxCell>
        <mxCell id="oa86yUTpvysGV-nhvWKG-169" style="edgeStyle=orthogonalEdgeStyle;rounded=1;jumpStyle=arc;orthogonalLoop=1;jettySize=auto;html=1;exitX=1;exitY=0.5;exitDx=0;exitDy=0;entryX=0.62;entryY=1.043;entryDx=0;entryDy=0;entryPerimeter=0;dashed=1;startArrow=none;startFill=0;endArrow=diamond;endFill=1;strokeWidth=1;" parent="1" source="oa86yUTpvysGV-nhvWKG-19" target="oa86yUTpvysGV-nhvWKG-122" edge="1">
          <mxGeometry relative="1" as="geometry" />
        </mxCell>
        <mxCell id="oa86yUTpvysGV-nhvWKG-170" value="流控服务" style="edgeLabel;html=1;align=center;verticalAlign=middle;resizable=0;points=[];" parent="oa86yUTpvysGV-nhvWKG-169" vertex="1" connectable="0">
          <mxGeometry x="-0.2154" y="-3" relative="1" as="geometry">
            <mxPoint as="offset" />
          </mxGeometry>
        </mxCell>
        <mxCell id="oa86yUTpvysGV-nhvWKG-19" value="限流过滤器" style="rounded=0;whiteSpace=wrap;html=1;fillColor=#fad7ac;strokeColor=#b46504;" parent="1" vertex="1">
          <mxGeometry x="396" y="280" width="120" height="40" as="geometry" />
        </mxCell>
        <mxCell id="oa86yUTpvysGV-nhvWKG-69" value="mock规则" style="rounded=0;whiteSpace=wrap;html=1;fillColor=#fad7ac;strokeColor=#b46504;" parent="1" vertex="1">
          <mxGeometry x="256" y="160" width="110" height="40" as="geometry" />
        </mxCell>
        <mxCell id="oa86yUTpvysGV-nhvWKG-70" value="正常规则" style="rounded=0;whiteSpace=wrap;html=1;fillColor=#fad7ac;strokeColor=#b46504;" parent="1" vertex="1">
          <mxGeometry x="540" y="160" width="106" height="40" as="geometry" />
        </mxCell>
        <mxCell id="oa86yUTpvysGV-nhvWKG-71" value="故障注入规则" style="rounded=0;whiteSpace=wrap;html=1;fillColor=#fad7ac;strokeColor=#b46504;" parent="1" vertex="1">
          <mxGeometry x="401" y="160" width="110" height="40" as="geometry" />
        </mxCell>
        <mxCell id="oa86yUTpvysGV-nhvWKG-83" value="" style="endArrow=classic;startArrow=classic;html=1;entryX=0.5;entryY=1;entryDx=0;entryDy=0;exitX=0.5;exitY=0;exitDx=0;exitDy=0;" parent="1" edge="1">
          <mxGeometry width="50" height="50" relative="1" as="geometry">
            <mxPoint x="695.5" y="430" as="sourcePoint" />
            <mxPoint x="695.5" y="390" as="targetPoint" />
          </mxGeometry>
        </mxCell>
        <mxCell id="oa86yUTpvysGV-nhvWKG-171" style="edgeStyle=orthogonalEdgeStyle;rounded=1;jumpStyle=arc;orthogonalLoop=1;jettySize=auto;html=1;exitX=0.5;exitY=0;exitDx=0;exitDy=0;entryX=0.744;entryY=1.007;entryDx=0;entryDy=0;entryPerimeter=0;dashed=1;startArrow=none;startFill=0;endArrow=diamond;endFill=1;strokeWidth=1;" parent="1" edge="1" target="oa86yUTpvysGV-nhvWKG-122">
          <mxGeometry relative="1" as="geometry">
            <mxPoint x="640.0000000000002" y="370" as="sourcePoint" />
            <mxPoint x="785.5739999999996" y="102.17000000000007" as="targetPoint" />
            <Array as="points">
              <mxPoint x="640" y="330" />
              <mxPoint x="805" y="330" />
            </Array>
          </mxGeometry>
        </mxCell>
        <mxCell id="oa86yUTpvysGV-nhvWKG-172" value="名字服务" style="edgeLabel;html=1;align=center;verticalAlign=middle;resizable=0;points=[];" parent="oa86yUTpvysGV-nhvWKG-171" vertex="1" connectable="0">
          <mxGeometry x="-0.0953" y="2" relative="1" as="geometry">
            <mxPoint as="offset" />
          </mxGeometry>
        </mxCell>
        <mxCell id="oa86yUTpvysGV-nhvWKG-93" value="" style="rounded=0;whiteSpace=wrap;html=1;" parent="1" vertex="1">
          <mxGeometry x="586" y="370" width="170" height="170" as="geometry" />
        </mxCell>
        <mxCell id="oa86yUTpvysGV-nhvWKG-94" value="第二级缓存" style="rounded=0;whiteSpace=wrap;html=1;fillColor=#fad7ac;strokeColor=#b46504;" parent="1" vertex="1">
          <mxGeometry x="616" y="390" width="120" height="40" as="geometry" />
        </mxCell>
        <mxCell id="oa86yUTpvysGV-nhvWKG-95" value="第一级缓存" style="rounded=0;whiteSpace=wrap;html=1;fillColor=#fad7ac;strokeColor=#b46504;" parent="1" vertex="1">
          <mxGeometry x="616" y="470" width="120" height="40" as="geometry" />
        </mxCell>
        <mxCell id="oa86yUTpvysGV-nhvWKG-96" value="" style="endArrow=none;dashed=1;html=1;entryX=0.5;entryY=0;entryDx=0;entryDy=0;exitX=0.5;exitY=1;exitDx=0;exitDy=0;" parent="1" source="oa86yUTpvysGV-nhvWKG-94" target="oa86yUTpvysGV-nhvWKG-95" edge="1">
          <mxGeometry width="50" height="50" relative="1" as="geometry">
            <mxPoint x="556" y="410" as="sourcePoint" />
            <mxPoint x="606" y="360" as="targetPoint" />
          </mxGeometry>
        </mxCell>
        <mxCell id="oa86yUTpvysGV-nhvWKG-113" value="server" style="rounded=0;whiteSpace=wrap;html=1;fillColor=#1ba1e2;strokeColor=#006EAF;fontColor=#ffffff;" parent="1" vertex="1">
          <mxGeometry x="240" y="670" width="120" height="60" as="geometry" />
        </mxCell>
        <mxCell id="oa86yUTpvysGV-nhvWKG-114" value="server" style="rounded=0;whiteSpace=wrap;html=1;fillColor=#1ba1e2;strokeColor=#006EAF;fontColor=#ffffff;" parent="1" vertex="1">
          <mxGeometry x="400" y="670" width="120" height="60" as="geometry" />
        </mxCell>
        <mxCell id="oa86yUTpvysGV-nhvWKG-115" value="server" style="rounded=0;whiteSpace=wrap;html=1;fillColor=#1ba1e2;strokeColor=#006EAF;fontColor=#ffffff;" parent="1" vertex="1">
          <mxGeometry x="550" y="670" width="120" height="60" as="geometry" />
        </mxCell>
        <mxCell id="oa86yUTpvysGV-nhvWKG-120" value="服务" style="text;html=1;strokeColor=none;fillColor=none;align=center;verticalAlign=middle;whiteSpace=wrap;rounded=0;" parent="1" vertex="1">
          <mxGeometry x="590" y="640" width="40" height="20" as="geometry" />
        </mxCell>
        <mxCell id="oa86yUTpvysGV-nhvWKG-122" value="" style="rounded=0;whiteSpace=wrap;html=1;" parent="1" vertex="1">
          <mxGeometry x="220" y="30" width="786" height="70" as="geometry" />
        </mxCell>
        <mxCell id="oa86yUTpvysGV-nhvWKG-124" value="服务治理平台" style="text;html=1;strokeColor=none;fillColor=none;align=center;verticalAlign=middle;whiteSpace=wrap;rounded=0;" parent="1" vertex="1">
          <mxGeometry x="236" y="55" width="80" height="20" as="geometry" />
        </mxCell>
        <mxCell id="oa86yUTpvysGV-nhvWKG-125" value="名字服务" style="rounded=0;whiteSpace=wrap;html=1;fillColor=#e1d5e7;strokeColor=#9673a6;" parent="1" vertex="1">
          <mxGeometry x="316" y="45" width="100" height="40" as="geometry" />
        </mxCell>
        <mxCell id="oa86yUTpvysGV-nhvWKG-134" value="" style="endArrow=classic;html=1;dashed=1;strokeWidth=2;entryX=0.461;entryY=0.971;entryDx=0;entryDy=0;entryPerimeter=0;" parent="1" target="oa86yUTpvysGV-nhvWKG-8" edge="1">
          <mxGeometry width="50" height="50" relative="1" as="geometry">
            <mxPoint x="451" y="639" as="sourcePoint" />
            <mxPoint x="456" y="590" as="targetPoint" />
          </mxGeometry>
        </mxCell>
        <mxCell id="oa86yUTpvysGV-nhvWKG-135" value="服务发现" style="edgeLabel;html=1;align=center;verticalAlign=middle;resizable=0;points=[];" parent="oa86yUTpvysGV-nhvWKG-134" vertex="1" connectable="0">
          <mxGeometry x="-0.2148" y="-2" relative="1" as="geometry">
            <mxPoint as="offset" />
          </mxGeometry>
        </mxCell>
        <mxCell id="oa86yUTpvysGV-nhvWKG-136" value="server" style="rounded=0;whiteSpace=wrap;html=1;fillColor=#1ba1e2;strokeColor=#006EAF;fontColor=#ffffff;" parent="1" vertex="1">
          <mxGeometry x="700" y="670" width="120" height="60" as="geometry" />
        </mxCell>
        <mxCell id="oa86yUTpvysGV-nhvWKG-137" value="主调认证过滤器" style="rounded=0;whiteSpace=wrap;html=1;fillColor=#b1ddf0;strokeColor=#10739e;" parent="1" vertex="1">
          <mxGeometry x="836" y="500" width="120" height="40" as="geometry" />
        </mxCell>
        <mxCell id="oa86yUTpvysGV-nhvWKG-138" value="熔断器上报" style="rounded=0;whiteSpace=wrap;html=1;fillColor=#b1ddf0;strokeColor=#10739e;" parent="1" vertex="1">
          <mxGeometry x="836" y="430" width="120" height="40" as="geometry" />
        </mxCell>
        <mxCell id="oa86yUTpvysGV-nhvWKG-154" style="edgeStyle=orthogonalEdgeStyle;rounded=0;jumpStyle=arc;orthogonalLoop=1;jettySize=auto;html=1;exitX=0.5;exitY=0;exitDx=0;exitDy=0;entryX=0.5;entryY=1;entryDx=0;entryDy=0;startArrow=none;startFill=0;endArrow=classic;endFill=1;strokeWidth=1;" parent="1" source="oa86yUTpvysGV-nhvWKG-139" target="oa86yUTpvysGV-nhvWKG-140" edge="1">
          <mxGeometry relative="1" as="geometry" />
        </mxCell>
        <mxCell id="oa86yUTpvysGV-nhvWKG-139" value="L5/北极星上报" style="rounded=0;whiteSpace=wrap;html=1;fillColor=#b1ddf0;strokeColor=#10739e;" parent="1" vertex="1">
          <mxGeometry x="836" y="360" width="120" height="40" as="geometry" />
        </mxCell>
        <mxCell id="oa86yUTpvysGV-nhvWKG-156" style="edgeStyle=orthogonalEdgeStyle;rounded=0;jumpStyle=arc;orthogonalLoop=1;jettySize=auto;html=1;exitX=0.5;exitY=0;exitDx=0;exitDy=0;entryX=0.5;entryY=1;entryDx=0;entryDy=0;startArrow=none;startFill=0;endArrow=open;endFill=0;strokeWidth=1;" parent="1" source="oa86yUTpvysGV-nhvWKG-140" target="oa86yUTpvysGV-nhvWKG-151" edge="1">
          <mxGeometry relative="1" as="geometry" />
        </mxCell>
        <mxCell id="oa86yUTpvysGV-nhvWKG-140" value="调用链上报" style="rounded=0;whiteSpace=wrap;html=1;fillColor=#b1ddf0;strokeColor=#10739e;" parent="1" vertex="1">
          <mxGeometry x="836" y="290" width="120" height="40" as="geometry" />
        </mxCell>
        <mxCell id="oa86yUTpvysGV-nhvWKG-145" value="" style="endArrow=classic;html=1;strokeWidth=1;" parent="1" target="oa86yUTpvysGV-nhvWKG-138" edge="1">
          <mxGeometry width="50" height="50" relative="1" as="geometry">
            <mxPoint x="896" y="500" as="sourcePoint" />
            <mxPoint x="946" y="450" as="targetPoint" />
          </mxGeometry>
        </mxCell>
        <mxCell id="oa86yUTpvysGV-nhvWKG-160" style="edgeStyle=orthogonalEdgeStyle;jumpStyle=arc;orthogonalLoop=1;jettySize=auto;html=1;exitX=0.5;exitY=0;exitDx=0;exitDy=0;startArrow=none;startFill=0;endArrow=diamond;endFill=1;strokeWidth=1;rounded=1;dashed=1;" parent="1" source="oa86yUTpvysGV-nhvWKG-151" edge="1">
          <mxGeometry relative="1" as="geometry">
            <mxPoint x="896" y="100" as="targetPoint" />
          </mxGeometry>
        </mxCell>
        <mxCell id="oa86yUTpvysGV-nhvWKG-151" value="模调上报" style="rounded=0;whiteSpace=wrap;html=1;fillColor=#b1ddf0;strokeColor=#10739e;" parent="1" vertex="1">
          <mxGeometry x="836" y="220" width="120" height="40" as="geometry" />
        </mxCell>
        <mxCell id="oa86yUTpvysGV-nhvWKG-153" value="" style="endArrow=classic;html=1;strokeWidth=1;exitX=0.5;exitY=0;exitDx=0;exitDy=0;" parent="1" source="oa86yUTpvysGV-nhvWKG-138" target="oa86yUTpvysGV-nhvWKG-139" edge="1">
          <mxGeometry width="50" height="50" relative="1" as="geometry">
            <mxPoint x="898" y="420" as="sourcePoint" />
            <mxPoint x="906" y="480" as="targetPoint" />
          </mxGeometry>
        </mxCell>
        <mxCell id="oa86yUTpvysGV-nhvWKG-157" value="" style="endArrow=classic;html=1;dashed=1;strokeWidth=2;entryX=0.5;entryY=1;entryDx=0;entryDy=0;" parent="1" target="oa86yUTpvysGV-nhvWKG-137" edge="1">
          <mxGeometry width="50" height="50" relative="1" as="geometry">
            <mxPoint x="896" y="640" as="sourcePoint" />
            <mxPoint x="895.8999999999999" y="562.8399999999999" as="targetPoint" />
          </mxGeometry>
        </mxCell>
        <mxCell id="oa86yUTpvysGV-nhvWKG-158" value="服务上报" style="edgeLabel;html=1;align=center;verticalAlign=middle;resizable=0;points=[];" parent="oa86yUTpvysGV-nhvWKG-157" vertex="1" connectable="0">
          <mxGeometry x="-0.2148" y="-2" relative="1" as="geometry">
            <mxPoint as="offset" />
          </mxGeometry>
        </mxCell>
        <mxCell id="oa86yUTpvysGV-nhvWKG-161" value="server" style="rounded=0;whiteSpace=wrap;html=1;fillColor=#1ba1e2;strokeColor=#006EAF;fontColor=#ffffff;" parent="1" vertex="1">
          <mxGeometry x="850" y="670" width="120" height="60" as="geometry" />
        </mxCell>
        <mxCell id="oa86yUTpvysGV-nhvWKG-163" value="流控服务" style="rounded=0;whiteSpace=wrap;html=1;fillColor=#e1d5e7;strokeColor=#9673a6;" parent="1" vertex="1">
          <mxGeometry x="426" y="45" width="100" height="40" as="geometry" />
        </mxCell>
        <mxCell id="oa86yUTpvysGV-nhvWKG-165" value="配置中心" style="rounded=0;whiteSpace=wrap;html=1;fillColor=#e1d5e7;strokeColor=#9673a6;" parent="1" vertex="1">
          <mxGeometry x="540" y="45" width="100" height="40" as="geometry" />
        </mxCell>
        <mxCell id="oa86yUTpvysGV-nhvWKG-166" value="故障注入" style="rounded=0;whiteSpace=wrap;html=1;fillColor=#e1d5e7;strokeColor=#9673a6;" parent="1" vertex="1">
          <mxGeometry x="656" y="45" width="100" height="40" as="geometry" />
        </mxCell>
        <mxCell id="oa86yUTpvysGV-nhvWKG-167" value="日志" style="rounded=0;whiteSpace=wrap;html=1;fillColor=#e1d5e7;strokeColor=#9673a6;" parent="1" vertex="1">
          <mxGeometry x="776" y="45" width="100" height="40" as="geometry" />
        </mxCell>
        <mxCell id="oa86yUTpvysGV-nhvWKG-168" value="分布式追踪" style="rounded=0;whiteSpace=wrap;html=1;fillColor=#e1d5e7;strokeColor=#9673a6;" parent="1" vertex="1">
          <mxGeometry x="886" y="45" width="100" height="40" as="geometry" />
        </mxCell>
        <mxCell id="qV7i9vCq-9uY7oXg63Xt-5" style="edgeStyle=orthogonalEdgeStyle;rounded=0;orthogonalLoop=1;jettySize=auto;html=1;exitX=0.5;exitY=0;exitDx=0;exitDy=0;entryX=0.5;entryY=1;entryDx=0;entryDy=0;" edge="1" parent="1" source="qV7i9vCq-9uY7oXg63Xt-2" target="qV7i9vCq-9uY7oXg63Xt-4">
          <mxGeometry relative="1" as="geometry" />
        </mxCell>
        <mxCell id="qV7i9vCq-9uY7oXg63Xt-2" value="" style="rounded=0;whiteSpace=wrap;html=1;fillColor=none;dashed=1;" vertex="1" parent="1">
          <mxGeometry x="381" y="270" width="150" height="280" as="geometry" />
        </mxCell>
        <mxCell id="qV7i9vCq-9uY7oXg63Xt-7" style="edgeStyle=orthogonalEdgeStyle;rounded=0;orthogonalLoop=1;jettySize=auto;html=1;exitX=1;exitY=0.5;exitDx=0;exitDy=0;entryX=1;entryY=0.5;entryDx=0;entryDy=0;dashed=1;dashPattern=1 2;endArrow=block;endFill=0;startArrow=block;startFill=0;strokeWidth=2;" edge="1" parent="1" source="qV7i9vCq-9uY7oXg63Xt-4" target="oa86yUTpvysGV-nhvWKG-93">
          <mxGeometry relative="1" as="geometry">
            <Array as="points">
              <mxPoint x="771" y="180" />
              <mxPoint x="771" y="455" />
            </Array>
          </mxGeometry>
        </mxCell>
        <mxCell id="qV7i9vCq-9uY7oXg63Xt-4" value="" style="rounded=0;whiteSpace=wrap;html=1;dashed=1;fillColor=none;" vertex="1" parent="1">
          <mxGeometry x="246" y="140" width="420" height="80" as="geometry" />
        </mxCell>
      </root>
    </mxGraphModel>
  </diagram>
</mxfile>
